<svg xmlns="http://www.w3.org/2000/svg" version="1.1" viewBox="-5.0 -10.0 110.0 135.0">
 <g>
  <path d="m15.625 37.5h3.75c0.6875 0 1.25-0.5625 1.25-1.25s-0.5625-1.25-1.25-1.25h-3.75c-1.75 0-3.125-1.375-3.125-3.125s1.375-3.125 3.125-3.125h4.5c0.4375 0 0.8125-0.25 1.0625-0.625s0.25-0.8125 0.0625-1.25c-0.4375-0.8125-0.625-1.6875-0.625-2.5625 0-3.125 2.5-5.625 5.625-5.625 1.5625 0 3.0625 0.625 4.125 1.8125 0.3125 0.375 0.8125 0.5 1.3125 0.375s0.8125-0.5625 0.875-1c0.375-2.8125 2.75-4.875 5.5625-4.875 3.125 0 5.625 2.5 5.625 5.625 0 0.25 0 0.5625-0.0625 0.875-0.0625 0.4375 0.125 0.9375 0.5 1.1875s0.875 0.3125 1.3125 0.125c0.875-0.4375 1.9375-0.4375 2.75 0 0.625 0.3125 1.375 0.0625 1.6875-0.5625s0.0625-1.375-0.5625-1.6875c-0.9375-0.5-2.0625-0.625-3.125-0.5-0.3125-4.25-3.8125-7.5625-8.125-7.5625-3.375 0-6.25 2.0625-7.5 5.0625-1.3125-0.8125-2.8125-1.3125-4.375-1.3125-4.5 0-8.125 3.625-8.125 8.125 0 0.625 0.0625 1.25 0.25 1.875h-2.75c-3.125 0-5.625 2.5-5.625 5.625s2.5 5.625 5.625 5.625z"/>
  <path d="m42.438 37c-1.875 1.125-4.1875 2.4375-7.25 7.3125-2.625 4.1875-3.625 4.5-6.5625 5.4375-0.3125 0.0625-0.5625 0.1875-0.9375 0.3125-0.8125 0.25-1.6875 0.5625-2.5625 0.75-0.25 0.0625-0.5 0.125-0.8125 0.25v-2.9375h1.0625c2.875 0 5.1875-2.3125 5.1875-5.1875v-1.25c0.625-0.25 1.25-0.625 1.6875-1.1875 0.25-0.3125 0.4375-0.6875 0.625-1.0625h0.875c0.6875 0 1.25-0.5625 1.25-1.25s-0.5625-1.25-1.25-1.25h-0.8125c-0.375-1.125-1.3125-2-2.5-2.375-0.125-0.875-0.125-1.6875 0-1.9375 0.3125-0.5 0.6875-0.75 1-0.8125 0.375-0.0625 0.6875 0.25 0.8125 0.375 0.5 0.5 1.25 0.5 1.75 0s0.5-1.25 0-1.75c-0.8125-0.8125-1.8125-1.1875-2.8125-1.0625-0.75 0.0625-1.875 0.4375-2.8125 1.9375-0.625 0.9375-0.5625 2.375-0.4375 3.5-0.3125 0.125-0.625 0.3125-0.875 0.5-0.75 0.625-1.25 1.4375-1.375 2.375l-5.8125 5.8125-8 4.8125c-0.5 0.3125-0.75 1-0.5 1.5625 0.1875 0.5 0.6875 0.75 1.125 0.75 0.125 0 0.1875 0 0.3125-0.0625l9.0625-2.125v3.4375c-2.1875 0.8125-4.3125 1.875-5.6875 3.75-1.9375 1.75-5.125 5.1875-6 9.6875-0.125 0.6875 0.3125 1.3125 1 1.4375h0.25c0.5625 0 1.125-0.4375 1.25-1 0.25-1.5 0.875-2.875 1.625-4.0625-0.0625 0.625-0.125 1.1875-0.1875 1.8125s-0.125 1.3125-0.1875 1.9375c-0.0625 0.6875 0.4375 1.3125 1.125 1.375h0.125c0.625 0 1.1875-0.5 1.25-1.125s0.125-1.3125 0.1875-1.9375c0.0625-1 0.1875-2 0.25-3 0.5-5 4.4375-6.1875 9-7.5 0.875-0.25 1.75-0.5 2.625-0.8125 0.3125-0.125 0.625-0.1875 0.875-0.3125 3.375-1.125 4.875-1.75 7.875-6.5 2.75-4.375 4.6875-5.5 6.4375-6.5 0.9375-0.5625 1.875-1.0625 2.75-2 2.75-2.6875 6.5625-9.1875 8.375-13.5 1.6875-4 3.9375-5.75 4-5.75 0.375-0.3125 0.5625-0.75 0.5-1.25l-0.375-2c-0.0625-0.3125 0.0625-0.625 0.25-0.875l0.5625-0.5625 1.6875 2.8125c0.1875 0.3125 0.5 0.5 0.875 0.5625l3.1875 0.5625c0.375 0.0625 0.75 0.3125 1 0.625 0.5625 0.8125 1.375 1.4375 2.375 1.6875l1.875 0.4375c0.6875 0.1875 1.125 0.75 1.125 1.5v0.8125c0 0.4375-0.375 0.75-0.75 0.75-0.125 0-0.25 0-0.375-0.0625l-0.375-0.1875c-0.4375-0.25-0.9375-0.375-1.4375-0.375h-2.875c-0.375 0-0.75 0.1875-0.9375 0.4375-0.9375 1.125-1.5 1.4375-2.5625 1.4375-1.25 0-2.5-0.625-2.5-1.875 0-0.6875-0.5625-1.25-1.25-1.25s-1.25 0.5625-1.25 1.25c0 1.5 0.8125 2.75 2 3.5625-0.4375 1.25-0.8125 2.75-1.1875 4.375-1.125 4.3125-2.4375 9.625-5.625 15.25-1.25 2.125-2.125 3.875-2.75 5.375-0.25 0.625 0 1.375 0.625 1.625 0.1875 0.0625 0.3125 0.125 0.5 0.125 0.5 0 0.9375-0.25 1.125-0.75 0.625-1.375 1.5-3.0625 2.625-5.125 3.375-5.875 4.75-11.438 5.9375-15.875 0.375-1.5625 0.75-3 1.125-4.1875 0.1875 0 0.375 0.0625 0.625 0.0625 1.875 0 3.0625-0.75 4.125-1.875h2.3125c0.125 0 0.25 0 0.375 0.0625l0.375 0.1875c0.4375 0.25 0.9375 0.375 1.4375 0.375 1.8125 0 3.25-1.4375 3.25-3.25v-0.8125c0-1.875-1.25-3.4375-3.0625-3.875l-1.875-0.4375c-0.375-0.0625-0.6875-0.3125-0.875-0.625-0.625-0.9375-1.5625-1.5625-2.625-1.75l-2.625-0.5-2.1875-3.75c-0.1875-0.3125-0.5625-0.5625-0.9375-0.625s-0.75 0.0625-1.0625 0.375l-1.6875 1.6875c-0.8125 0.8125-1.1875 2-0.9375 3.125l0.25 1.25c-0.9375 0.875-2.75 2.875-4.1875 6.25-1.9375 4.5625-5.625 10.5-7.875 12.75-0.6875 0.75-1.4375 1.1875-2.3125 1.6875zm-21.188 8.4375c0.0625-0.0625 0.1875-0.125 0.25-0.1875l6.25-6.25c0.25-0.25 0.375-0.5625 0.375-0.875 0-0.375 0.1875-0.75 0.5-1 0.125-0.0625 0.375-0.25 0.75-0.25 0.125 0 0.1875 0 0.3125 0.0625 0.4375 0.125 0.8125 0.5 0.875 0.875 0.125 0.5625-0.125 0.9375-0.25 1.0625-0.25 0.3125-0.625 0.5-1 0.5-0.6875 0-1.25 0.5625-1.25 1.25v2.3125c0 1.5-1.1875 2.6875-2.6875 2.6875h-2.25c-0.0625 0-0.1875 0-0.25 0.0625l-3.125 0.75z"/>
  <path d="m31.125 67.938c-1.9375 0.1875-3.6875 0.3125-5.5625 0.375-0.6875 0-1.25 0.5625-1.25 1.25s0.5625 1.25 1.25 1.25c1.9375-0.0625 3.75-0.125 5.75-0.375 0.6875-0.0625 1.1875-0.6875 1.125-1.375s-0.625-1.25-1.3125-1.125z"/>
  <path d="m64.312 20.625c0.6875 0 1.25-0.5625 1.25-1.25s-0.5625-1.25-1.25-1.25h-0.5625c-0.6875 0-1.25 0.5625-1.25 1.25s0.5625 1.25 1.25 1.25z"/>
  <path d="m80 46.188c1.9375-0.9375 5-3.1875 5-8.6875 0-0.6875-0.5625-1.25-1.25-1.25-4.0625 0-6.1875 1.625-7.375 3.3125-0.4375-0.125-0.875-0.1875-1.375-0.1875s-0.9375 0.0625-1.375 0.1875c-1.1875-1.6875-3.3125-3.3125-7.375-3.3125-0.6875 0-1.25 0.5625-1.25 1.25 0 5.4375 3.0625 7.75 5 8.6875v1.9375c0 0.25 0 0.4375 0.0625 0.6875l-1.8125 1.1875c-1.3125 0.9375-2.1875 2.375-2.5 3.9375-0.75 1.4375-1.8125 2.5625-3.0625 3.4375-0.5625 0.375-0.75 1.1875-0.3125 1.75 0.25 0.375 0.625 0.5625 1.0625 0.5625 0.25 0 0.5-0.0625 0.6875-0.1875 0.5625-0.375 1.0625-0.8125 1.5625-1.25v2.5c0 1.5 0.5625 2.9375 1.5 4.0625l2.25 2.625v0.5c0 1.875 1.5625 3.4375 3.4375 3.4375 0.8125 0 1.5625-0.3125 2.1875-0.8125 0.625 0.5 1.375 0.8125 2.1875 0.8125 1.875 0 3.4375-1.5625 3.4375-3.4375v-0.5l2.25-2.625c1-1.125 1.5-2.5625 1.5-4.0625v-5.5625c0-2-1-3.9375-2.6875-5.125l-1.75-1.125c0-0.25 0.0625-0.4375 0.0625-0.6875zm2.4375-7.375c-0.3125 2.3125-1.3125 3.6875-2.5 4.5625-0.1875-0.9375-0.6875-1.8125-1.375-2.5 0.8125-1.125 2.125-1.8125 3.875-2.0625zm-4.9375 5.5625v3.75c0 1.375-1.125 2.5-2.5 2.5s-2.5-1.125-2.5-2.5v-3.75c0-1.375 1.125-2.5 2.5-2.5s2.5 1.125 2.5 2.5zm-9.9375-5.5625c1.75 0.25 3 0.875 3.875 2-0.6875 0.6875-1.125 1.5625-1.375 2.5-1.125-0.75-2.1875-2.125-2.5-4.5zm12.75 13.188c1 0.6875 1.5625 1.8125 1.5625 3.0625v5.5625c0 0.875-0.3125 1.75-0.875 2.4375l-2.5625 3c-0.1875 0.25-0.3125 0.5-0.3125 0.8125v0.9375c0 0.5-0.4375 0.9375-0.9375 0.9375s-0.9375-0.4375-0.9375-0.9375v-2.9375l3.0625-3.0625c0.5-0.5 0.5-1.25 0-1.75s-1.25-0.5-1.75 0l-2.5 2.5-2.5-2.5c-0.5-0.5-1.25-0.5-1.75 0s-0.5 1.25 0 1.75l3.0625 3.0625v2.9375c0 0.5-0.4375 0.9375-0.9375 0.9375s-0.9375-0.4375-0.9375-0.9375v-0.9375c0-0.3125-0.125-0.5625-0.3125-0.8125l-2.5625-3c-0.5625-0.6875-0.875-1.5625-0.875-2.4375v-5.5625c0-1.1875 0.5625-2.375 1.5-3l1.375-0.875c0.9375 1.1875 2.375 2 4 2s3.0625-0.75 4-2z"/>
  <path d="m75 48.562c0.6875 0 1.25-0.5625 1.25-1.25v-1.0625c0-0.6875-0.5625-1.25-1.25-1.25s-1.25 0.5625-1.25 1.25v1.0625c0 0.6875 0.5625 1.25 1.25 1.25z"/>
  <path d="m46.25 62.5h7.5c0.6875 0 1.25-0.5625 1.25-1.25s-0.5625-1.25-1.25-1.25h-7.5c-0.6875 0-1.25 0.5625-1.25 1.25s0.5625 1.25 1.25 1.25z"/>
  <path d="m88.75 70.625c0.6875 0 1.25-0.5625 1.25-1.25s-0.5625-1.25-1.25-1.25h-5c-0.6875 0-1.25 0.5625-1.25 1.25s0.5625 1.25 1.25 1.25h1.25v16.875h-2.5v-15c0-0.6875-0.5625-1.25-1.25-1.25s-1.25 0.5625-1.25 1.25v1.25h-16.25v-0.625c0-0.6875-0.5625-1.25-1.25-1.25s-1.25 0.5625-1.25 1.25v14.375h-2.5v-16.875h5.625c0.6875 0 1.25-0.5625 1.25-1.25s-0.5625-1.25-1.25-1.25h-0.625v-0.25c0-7.5625-6.1875-13.5-13.75-13.5s-13.75 5.9375-13.75 13.5v0.25h-0.625c-0.6875 0-1.25 0.5625-1.25 1.25s0.5625 1.25 1.25 1.25h5.625v16.875h-2.5v-14.375c0-0.6875-0.5625-1.25-1.25-1.25s-1.25 0.5625-1.25 1.25v0.625h-16.25v-3.125h1.25c0.6875 0 1.25-0.5625 1.25-1.25s-0.5625-1.25-1.25-1.25h-10c-0.6875 0-1.25 0.5625-1.25 1.25s0.5625 1.25 1.25 1.25h6.25v16.875h-2.5v-14.375c0-0.6875-0.5625-1.25-1.25-1.25s-1.25 0.5625-1.25 1.25v0.625h-1.25c-0.6875 0-1.25 0.5625-1.25 1.25s0.5625 1.25 1.25 1.25h1.25v11.25h-0.8125c-0.6875 0-1.25 0.5625-1.25 1.25s0.5625 1.25 1.25 1.25h74.562 0.1875 0.1875 2.0625c0.6875 0 1.25-0.5625 1.25-1.25s-0.5625-1.25-1.25-1.25h-1.25v-11.25h1.25c0.6875 0 1.25-0.5625 1.25-1.25s-0.5625-1.25-1.25-1.25h-1.25v-3.125zm-25 5.625h16.25v11.25h-16.25zm-21.25-8.125h-3.75v-0.25c0-6.1875 5.0625-11 11.25-11s11.25 4.8125 11.25 11v0.25h-3.75c-0.125 0-0.1875 0-0.3125 0.0625-1.5625-2.3125-4.1875-3.8125-7.1875-3.8125s-5.625 1.5-7.1875 3.8125c-0.125-0.0625-0.1875-0.0625-0.3125-0.0625zm1.25 5c0-3.4375 2.8125-6.25 6.25-6.25s6.25 2.8125 6.25 6.25v14.375h-12.5zm-7.5 3.125v11.25h-16.25v-11.25z"/>
  <path d="m73.75 26.938c-0.625 0.25-1 0.9375-0.75 1.625 1.25 3.5 4.5625 5.8125 8.25 5.8125 4.8125 0 8.75-3.9375 8.75-8.75s-3.9375-8.75-8.75-8.75c-1.75 0-3.4375 0.5-4.875 1.5-0.5625 0.375-0.75 1.1875-0.3125 1.75 0.375 0.5625 1.1875 0.75 1.75 0.3125 1.0625-0.6875 2.25-1.0625 3.5-1.0625 3.4375 0 6.25 2.8125 6.25 6.25s-2.8125 6.25-6.25 6.25c-2.625 0-5-1.6875-5.875-4.125-0.3125-0.6875-1-1-1.6875-0.8125z"/>
 </g>
<text x="0.0" y="117.5" font-size="5.0" font-weight="bold" font-family="Arbeit Regular, Helvetica, Arial-Unicode, Arial, Sans-serif" fill="#000000">Created by bsd studio</text><text x="0.0" y="122.5" font-size="5.0" font-weight="bold" font-family="Arbeit Regular, Helvetica, Arial-Unicode, Arial, Sans-serif" fill="#000000">from Noun Project</text></svg>