<svg xmlns="http://www.w3.org/2000/svg" viewBox="0 0 100 125" x="0px" y="0px"><path d="M58.435,86.565c-1.373,0-2.736-.17-4.073-.514-2.895-.736-5.828-.736-8.723,0-2.494,.637-5.067,.681-7.652,.129-6.795-1.447-12.06-7.02-13.098-13.867-.805-5.306,.851-10.539,4.546-14.354,2.222-2.293,3.716-4.708,4.436-7.177,1.099-3.763,3.425-6.935,6.732-9.179,5.62-3.812,13.173-3.818,18.798,0,3.307,2.244,5.633,5.416,6.732,9.179h0c.72,2.469,2.214,4.883,4.433,7.174,3.697,3.818,5.353,9.05,4.548,14.356-1.038,6.847-6.303,12.42-13.101,13.87-1.195,.253-2.39,.382-3.576,.382Z"/><path d="M37.344,33.125c-5.427,0-9.844-4.417-9.844-9.844s4.417-9.844,9.844-9.844,9.844,4.417,9.844,9.844-4.417,9.844-9.844,9.844Z"/><path d="M62.656,33.125c-5.427,0-9.844-4.417-9.844-9.844s4.417-9.844,9.844-9.844,9.844,4.417,9.844,9.844-4.417,9.844-9.844,9.844Z"/><path d="M78.125,50c-4.653,0-8.438-3.785-8.438-8.438s3.785-8.438,8.438-8.438,8.438,3.785,8.438,8.438-3.785,8.438-8.438,8.438Z"/><path d="M21.875,50c-4.653,0-8.438-3.785-8.438-8.438s3.785-8.438,8.438-8.438,8.438,3.785,8.438,8.438-3.785,8.438-8.438,8.438Z"/><text x="0" y="115" fill="#000000" font-size="5px" font-weight="bold" font-family="'Helvetica Neue', Helvetica, Arial-Unicode, Arial, Sans-serif">Created by Hilmy Abiyyu Asad</text><text x="0" y="120" fill="#000000" font-size="5px" font-weight="bold" font-family="'Helvetica Neue', Helvetica, Arial-Unicode, Arial, Sans-serif">from the Noun Project</text></svg>