<svg xmlns="http://www.w3.org/2000/svg" xmlns:xlink="http://www.w3.org/1999/xlink" version="1.1" x="0px" y="0px" viewBox="0 0 45 56.25" style="enable-background:new 0 0 45 45;" xml:space="preserve"><path d="M35.32,6.542c-2.345,0-4.253,1.908-4.253,4.253c0,0.829,0.248,1.598,0.66,2.253h-0.222  c-0.562-0.146-1.157-0.285-1.816-0.421c-1.237-2.845-4.056-4.719-7.189-4.719c-3.133,0-5.952,1.873-7.189,4.718  c-0.655,0.134-1.24,0.276-1.802,0.422h-0.236c0.412-0.655,0.66-1.424,0.66-2.253c0-2.345-1.908-4.253-4.253-4.253  S5.427,8.45,5.427,10.795c0,0.829,0.248,1.598,0.661,2.253H5.56v25.41h8.24V21.277c0.82-0.221,1.67-0.422,2.596-0.592  c1.485,1.837,3.721,2.916,6.104,2.916s4.619-1.079,6.103-2.916c0.929,0.172,1.778,0.373,2.597,0.592v17.181h8.24v-25.41h-0.527  c0.412-0.655,0.661-1.424,0.661-2.253C39.573,8.45,37.665,6.542,35.32,6.542z M33.067,10.795c0-1.242,1.011-2.253,2.253-2.253  c1.243,0,2.253,1.011,2.253,2.253s-1.011,2.253-2.253,2.253C34.078,13.048,33.067,12.037,33.067,10.795z M7.427,10.795  c0-1.242,1.011-2.253,2.253-2.253c1.242,0,2.253,1.011,2.253,2.253s-1.011,2.253-2.253,2.253  C8.438,13.048,7.427,12.037,7.427,10.795z M7.56,36.458v-4.08h2.12v-2H7.56v-9.25h2.12v-2H7.56v-4.08h4.24v6.8v2.905H9.624v2H11.8  v9.705H7.56z M28.336,18.606l-0.634-0.107l-0.361,0.532c-1.091,1.609-2.901,2.569-4.841,2.569c-1.94,0-3.75-0.961-4.842-2.569  L17.297,18.5l-0.633,0.106c-1.019,0.172-1.965,0.367-2.865,0.592v-4.165c0.727-0.195,1.518-0.374,2.433-0.553l0.564-0.109  l0.189-0.542c0.819-2.346,3.035-3.921,5.514-3.921c2.479,0,4.695,1.576,5.514,3.921l0.189,0.543l0.563,0.109  c0.918,0.179,1.709,0.358,2.434,0.553v4.165C30.303,18.976,29.356,18.779,28.336,18.606z M33.2,36.458v-9.705h2.148v-2H33.2v-2.906  v-6.799h4.24v4.08h-2.148v2h2.148v9.25h-2.148v2h2.148v4.08H33.2z"/><path d="M22.5,14.554c-1.605,0-2.911,1.306-2.911,2.911c0,1.604,1.306,2.91,2.911,2.91s2.911-1.306,2.911-2.91  C25.411,15.859,24.105,14.554,22.5,14.554z M22.5,18.375c-0.502,0-0.911-0.408-0.911-0.91s0.409-0.911,0.911-0.911  s0.911,0.409,0.911,0.911S23.002,18.375,22.5,18.375z"/><circle cx="23.5" cy="13.048" r="1"/><circle cx="25.589" cy="14.554" r="1"/><circle cx="21.143" cy="13.048" r="1"/><circle cx="19.143" cy="14.554" r="1"/><text x="0" y="60" fill="#000000" font-size="5px" font-weight="bold" font-family="'Helvetica Neue', Helvetica, Arial-Unicode, Arial, Sans-serif">Created by Rahmat Sigit Prasetyo</text><text x="0" y="65" fill="#000000" font-size="5px" font-weight="bold" font-family="'Helvetica Neue', Helvetica, Arial-Unicode, Arial, Sans-serif">from the Noun Project</text></svg>