<svg xmlns="http://www.w3.org/2000/svg" version="1.1" viewBox="-5.0 -10.0 110.0 135.0">
 <g>
  <path d="m23.75 73.75v-1.5625c0-0.51562-0.42188-0.9375-0.9375-0.9375h-9.6875c-0.22656 0-0.44141-0.0625-0.625-0.16797v2.668z"/>
  <path d="m16.875 68.75h0.3125c0.51562 0 0.9375-0.42188 0.9375-0.9375s-0.42188-0.9375-0.9375-0.9375h-4.6875v2.043c0.18359-0.10547 0.39844-0.16797 0.625-0.16797z"/>
  <path d="m71.875 76.25v6.25c0 2.0664-1.6836 3.75-3.75 3.75-0.96094 0-1.8359-0.36328-2.5-0.95703-0.66406 0.59375-1.5391 0.95703-2.5 0.95703-2.0664 0-3.75-1.6836-3.75-3.75v-6.25h-13.75v6.25c0 1.0547-0.44922 2.0664-1.2266 2.7734-0.69141 0.62891-1.5977 0.97266-2.5312 0.97266-0.11719 0-0.23828-0.003906-0.35938-0.015625-0.80859-0.078125-1.5352-0.4375-2.1094-0.96875-0.66406 0.61328-1.5508 0.98828-2.5234 0.98828-2.0664 0-3.75-1.6836-3.75-3.75v-6.25h-20.625v11.25h75v-11.25zm-49.688 5h-4.0625c-0.69141 0-1.25-0.55859-1.25-1.25s0.55859-1.25 1.25-1.25h4.0625c0.69141 0 1.25 0.55859 1.25 1.25s-0.55859 1.25-1.25 1.25zm31.875 2.5h-4.0625c-0.69141 0-1.25-0.55859-1.25-1.25s0.55859-1.25 1.25-1.25h4.0625c0.69141 0 1.25 0.55859 1.25 1.25s-0.55859 1.25-1.25 1.25zm26.562-5.625h4.0625c0.69141 0 1.25 0.55859 1.25 1.25s-0.55859 1.25-1.25 1.25h-4.0625c-0.69141 0-1.25-0.55859-1.25-1.25s0.55859-1.25 1.25-1.25z"/>
  <path d="m41.875 50.312c0 4.582-6.875 4.582-6.875 0s6.875-4.582 6.875 0"/>
  <path d="m33.125 60c0-0.69141 0.55859-1.25 1.25-1.25s1.25 0.55859 1.25 1.25v22.5c0 0.6875 0.5625 1.25 1.25 1.25s1.25-0.5625 1.25-1.25v-13.125c0-0.69141 0.55859-1.25 1.25-1.25s1.25 0.55859 1.25 1.25v13.016c0 0.69922 0.49219 1.293 1.125 1.3516 0.35938 0.035156 0.70312-0.078126 0.96875-0.32031 0.26172-0.23828 0.40625-0.56641 0.40625-0.92188v-24.406c0-0.33203 0.13281-0.64844 0.36719-0.88281l5.8828-5.8867v-7.2617c0-0.51562-0.73438-0.9375-1.25-0.9375s-1.25 0.42188-1.25 0.9375v5.3438c0 0.33203-0.13281 0.64844-0.36719 0.88281l-4.9688 4.9688c-0.23437 0.23438-0.55078 0.36719-0.88281 0.36719h-6.9062c-1.7227 0-3.125 1.4023-3.125 3.125v9.0625c0 0.51562 1.0469 0.9375 1.5625 0.9375s0.9375-0.42188 0.9375-0.9375z"/>
  <path d="m67.809 57.191c2.9609 2.9648-1.4062 7.332-4.3672 4.3672-2.9648-2.9648 1.4023-7.332 4.3672-4.3672"/>
  <path d="m88.125 18.75c0 4.168-6.25 4.168-6.25 0s6.25-4.168 6.25 0"/>
  <path d="m61.875 66.25v16.25c0 0.6875 0.5625 1.25 1.25 1.25s1.25-0.5625 1.25-1.25v-8.125c0-0.69141 0.55859-1.25 1.25-1.25s1.25 0.55859 1.25 1.25v8.125c0 0.6875 0.5625 1.25 1.25 1.25s1.25-0.5625 1.25-1.25v-16.281c0-0.41016 0.19922-0.79297 0.53516-1.0273l5.1758-3.5977c0.33594-0.23438 0.53516-0.61719 0.53516-1.0273l0.003906-6.1914c0-0.34375-0.61719-0.65234-0.96484-0.65234-0.34375 0-0.91016 0.30859-0.91016 0.65234v5.0312c0 0.41797-0.21094 0.80859-0.55859 1.043l-4.9688 3.7188c-0.20312 0.13672-0.44531 0.20703-0.69141 0.20703h-3.7812c-0.24609 0-0.48828-0.074219-0.69141-0.21094l-5-3.75c-0.35156-0.23047-0.55859-0.62109-0.55859-1.0391v-5c0-0.34375-0.68359-0.65234-1.0273-0.65234-0.34766 0-0.84766 0.30859-0.84766 0.65234v6.1992c0 0.40625 0.19922 0.78906 0.53125 1.0234l5.1836 3.6289c0.33594 0.23438 0.53516 0.61719 0.53516 1.0234z"/>
  <path d="m74.375 15c0 3.332-5 3.332-5 0s5-3.332 5 0"/>
  <path d="m87.5 64.375h-3.9375l-2.3125 1.8516v1.8984h3.125c0.69141 0 1.25 0.55859 1.25 1.25s-0.55859 1.25-1.25 1.25h-6.25c-1.0352 0-1.875 0.83984-1.875 1.875v1.25h11.25z"/>
  <path d="m26.875 17.5c0 3.332-5 3.332-5 0s5-3.332 5 0"/>
  <path d="m37.445 24.836-3.5586-3.5586-1.6367 2.1797c-0.64453 0.85938-1 1.9258-1 3v0.23828z"/>
  <path d="m28.191 35.625h-0.046875c0.042969 0.85156 0.35938 1.6523 0.92578 2.2891l1.7148-1.7148-0.71094-0.25c-0.60547-0.21484-1.2383-0.32422-1.8828-0.32422z"/>
  <path d="m62.586 21.875-7.6367-7.5547-1.0273 1.0273c-1.8086 1.8086-2.9141 4.125-3.207 6.625 0.92578-0.0625 1.8555-0.097656 2.7891-0.097656z"/>
  <path d="m58.75 42.652c0 1.3359 0.51953 2.5898 1.4648 3.5352l0.99609 0.99609 4.293-4.6836h-6.7539z"/>
  <path d="m17.035 48.75h-1.4648c-0.52344 0-0.99219-0.32422-1.1719-0.81641-0.03125-0.078125-0.23047-0.51953-0.73438-0.92969 0.11719 0.72656 0.10547 1.4102 0.09375 1.9453-0.003906 0.14844-0.007812 0.29297-0.007812 0.42578s0.003906 0.27734 0.003906 0.42578c0.011719 0.53516 0.023438 1.2188-0.09375 1.9453 0.50781-0.41016 0.70703-0.85547 0.74219-0.94531 0.19531-0.47266 0.66016-0.80078 1.168-0.80078h1.4727c0.53906 0 1.0156 0.34375 1.1875 0.85547 0.17578 0.53125 0.93359 1.3008 1.7969 1.8281 0.37109 0.22656 0.59766 0.62891 0.59766 1.0664 0 0.74609 0 1.9375-0.25 3.2266 1.2461-0.92187 1.8164-2.0273 2.0547-2.6211-0.21094-0.6875-0.57813-2.0312-0.57813-3.1055 0-0.69141 0.55859-1.25 1.25-1.25 0.69141 0 1.25 0.55859 1.25 1.25 0 0.46094 0.125 1.0898 0.26563 1.6406 1.9453-0.71875 3.3594-2.7891 3.4961-3.9609-0.33984-0.59766-1.7891-2.2656-3.9844-2.7031-0.48438-0.097656-0.86719-0.47266-0.97656-0.95703-0.035156-0.15625-0.60547-2.5469-2.7305-4.8125 0.26172 1.2031 0.32812 2.5156 0.20312 3.9375l-0.007812 0.085938c-0.039063 0.46094-0.33203 0.86328-0.76172 1.0469-0.64844 0.27344-1.2148 1.0898-1.6367 2.3672-0.16797 0.51172-0.64453 0.85547-1.1836 0.85547z"/>
  <path d="m86.488 30.289-5.3672-2.4414c-5.0703-2.3047-10.465-3.4727-16.035-3.4727h-11.582c-3.8633 0-7.6992 0.5625-11.398 1.6719l-12.031 3.6094c-0.75781 0.22656-1.543 0.34375-2.332 0.34375h-3.9922c-0.4375 0-0.84766-0.23047-1.0703-0.60547-0.03125-0.050781-3.1328-5.0625-10.066-8.1289 0.34375 2.9453 1.418 5.4609 2.3125 7.5508 0.73828 1.7305 1.3242 3.0977 1.3242 4.3086 0 0.9375-0.32422 1.7109-0.66406 2.5352-0.41797 1-0.91016 2.1875-1.1133 4.207 2.8789-1.4883 5.6953-3.625 8.3906-6.3672 0.23047-0.23828 0.55078-0.375 0.88672-0.375h4.4414c0.92969 0 1.8438 0.15625 2.7188 0.46875l14.93 5.2969c2.0742 0.73438 4.2422 1.1094 6.4453 1.1094h19.84c3.7969 0 7.4219-1.0938 10.527-3.125h-10.152c-0.69141 0-1.25-0.55859-1.25-1.25s0.55859-1.25 1.25-1.25h13.23c0.007812-0.007812 0.015625-0.015625 0.023437-0.019531l1.2461-1.2461c0.32422-0.32422 0.5-0.87891 0.5-1.2344 0-0.75781-0.33203-1.2773-1.0117-1.5859zm-17.738 6.5859h-3.9648c-1.4062 0-2.7539-0.59766-3.6992-1.6367l-1.75-1.9219c-1.9141-2.1094-4.6484-3.3164-7.4922-3.3164h-3.6289l4.7734 4.375h2.0117c0.69141 0 1.25 0.55859 1.25 1.25s-0.55859 1.25-1.25 1.25h-10.625c-0.69141 0-1.25-0.55859-1.25-1.25s0.55859-1.25 1.25-1.25h4.9102l-5.1328-4.7031c-0.37891-0.34766-0.50781-0.89453-0.32031-1.375 0.19141-0.48047 0.65234-0.79688 1.168-0.79688h6.8438c3.5508 0 6.9531 1.5078 9.3438 4.1328l1.75 1.9219c0.47266 0.51953 1.1484 0.82031 1.8516 0.82031h3.9609c0.69141 0 1.25 0.55859 1.25 1.25s-0.55859 1.25-1.25 1.25zm5-6.875h-1.25c-0.69141 0-1.25-0.55859-1.25-1.25s0.55859-1.25 1.25-1.25h1.25c0.69141 0 1.25 0.55859 1.25 1.25s-0.55859 1.25-1.25 1.25z"/>
  <path d="m76.875 45c0 2.5-3.75 2.5-3.75 0s3.75-2.5 3.75 0"/>
  <path d="m88.121 60.469c0-1.3359-0.58594-2.6055-1.6562-3.5781-0.54297-0.49219-0.83984-1.1094-0.83984-1.7305 0-0.625 0.29688-1.2383 0.84375-1.7383 1.0664-0.97266 1.6523-2.2422 1.6523-3.5781 0-1.332-0.58594-2.6055-1.6641-3.5859-0.53906-0.49219-0.83594-1.1094-0.83594-1.7305s0.29688-1.2383 0.83594-1.7305c0.50781-0.46484 0.54688-1.2578 0.078125-1.7656-0.46484-0.51172-1.2578-0.54688-1.7656-0.078125-1.0586 0.97266-1.6445 2.2422-1.6445 3.5742 0 1.332 0.58594 2.6016 1.6641 3.5859 0.53906 0.49219 0.83594 1.1094 0.83594 1.7305s-0.29688 1.2383-0.84375 1.7344c-1.0664 0.97266-1.6523 2.2461-1.6523 3.5781 0 1.3359 0.58984 2.6055 1.6562 3.5781 0.54297 0.49219 0.83984 1.1094 0.83984 1.7305 0 0.49219-0.19141 0.97656-0.53906 1.4062h2.8125c0.14453-0.44922 0.22266-0.92188 0.22266-1.4023z"/>
 </g>
<text x="0.0" y="117.5" font-size="5.0" font-weight="bold" font-family="Arbeit Regular, Helvetica, Arial-Unicode, Arial, Sans-serif" fill="#000000">Created by bsd studio</text><text x="0.0" y="122.5" font-size="5.0" font-weight="bold" font-family="Arbeit Regular, Helvetica, Arial-Unicode, Arial, Sans-serif" fill="#000000">from Noun Project</text></svg>