<svg xmlns="http://www.w3.org/2000/svg" xmlns:xlink="http://www.w3.org/1999/xlink" version="1.1" x="0px" y="0px" viewBox="0 0 90 112.5" enable-background="new 0 0 90 90" xml:space="preserve"><path d="M32.8,75.472h-2.78c-0.181-4.907-1.307-8.508-2.628-11.065c-0.055-0.098-0.097-0.195-0.166-0.292c0,0,0-0.016-0.014-0.029  c-0.069-0.207-0.083-0.443-0.042-0.695c0.209-1.21,0.432-2.335,0.696-3.405c0.708,0.917,1.446,2.044,2.126,3.42  C31.424,66.281,32.62,70.216,32.8,75.472z M27.865,59.984c-1.808-2.35-3.448-3.336-3.602-3.421c-0.43-0.249-0.972-0.264-1.404-0.013  c-0.431,0.249-0.695,0.708-0.695,1.209v19.102c0,0.765,0.626,1.392,1.391,1.392c0.765,0,1.39-0.627,1.39-1.392V60.805  c0.708,0.792,1.515,1.863,2.266,3.28c-0.069-0.207-0.083-0.443-0.042-0.695C27.378,62.18,27.601,61.055,27.865,59.984z M32.8,75.472  h-2.78c0.014,0.458,0.027,0.918,0.027,1.39c0,0.765,0.626,1.392,1.391,1.392c0.765,0,1.39-0.627,1.39-1.392  C32.828,76.39,32.814,75.93,32.8,75.472z M74.487,76.867V57.76c0-0.498-0.268-0.959-0.699-1.205  c-0.433-0.249-0.963-0.243-1.394,0.005c-0.351,0.205-8.566,5.186-8.566,20.302c0,0.77,0.621,1.392,1.39,1.392  s1.391-0.622,1.391-1.392c0-8.808,2.973-13.69,5.098-16.055v16.061c0,0.769,0.622,1.39,1.39,1.39  C73.865,78.257,74.487,77.636,74.487,76.867z M35.928,45.596c-0.5-0.223-1.084-0.125-1.501,0.25  c-0.181,0.18-4.199,3.947-6.561,14.139c0.708,0.917,1.446,2.044,2.126,3.42c1.029-5.798,2.655-9.704,3.99-12.15v25.607  c0,0.765,0.625,1.392,1.39,1.392c0.765,0,1.391-0.627,1.391-1.392V46.875C36.762,46.318,36.442,45.818,35.928,45.596z   M47.869,76.861c0-14.064-7.587-19.966-7.91-20.211c-0.42-0.317-0.985-0.37-1.458-0.135c-0.473,0.233-0.771,0.716-0.771,1.244  v19.102c0,0.77,0.623,1.392,1.391,1.392c0.767,0,1.39-0.622,1.39-1.392V61.272c1.988,2.662,4.578,7.653,4.578,15.589  c0,0.77,0.622,1.392,1.39,1.392S47.869,77.631,47.869,76.861z M48.146,76.867c0-11.125,4.043-17.995,6.689-21.3v21.294  c0,0.77,0.622,1.392,1.39,1.392c0.769,0,1.391-0.622,1.391-1.392V52.1c0-0.53-0.303-1.015-0.779-1.249  c-0.474-0.232-1.045-0.175-1.464,0.15c-0.408,0.316-10.007,7.97-10.007,25.866c0,0.769,0.622,1.39,1.391,1.39  C47.524,78.257,48.146,77.636,48.146,76.867z M61.54,76.867c0-14.54,3.153-23.385,5.471-27.919v14.166  c0,0.769,0.62,1.391,1.39,1.391c0.768,0,1.39-0.622,1.39-1.391V44.189c0-0.571-0.348-1.083-0.881-1.294  c-0.53-0.208-1.135-0.07-1.526,0.345c-0.352,0.377-8.623,9.522-8.623,33.627c0,0.769,0.622,1.39,1.39,1.39  C60.919,78.257,61.54,77.636,61.54,76.867z M20.208,77.374c0.279-0.716-0.074-1.522-0.789-1.802  c-1.453-0.567-2.392-1.943-2.392-3.503c0-2.072,1.686-3.758,3.758-3.758c0.72,0,1.42,0.205,2.025,0.592  c0.647,0.416,1.506,0.227,1.92-0.421c0.415-0.646,0.227-1.506-0.419-1.92c-1.054-0.675-2.272-1.031-3.525-1.031  c-3.605,0-6.539,2.933-6.539,6.538c0,2.713,1.633,5.104,4.16,6.093c0.166,0.065,0.337,0.095,0.505,0.095  C19.468,78.257,19.993,77.922,20.208,77.374z M17.444,70.266c0.543-0.543,0.543-1.423,0-1.966l-3.774-3.775  c-0.543-0.542-1.423-0.542-1.966,0c-0.542,0.544-0.542,1.423,0,1.967l3.774,3.774c0.271,0.271,0.627,0.407,0.983,0.407  C16.817,70.673,17.173,70.536,17.444,70.266z M49.432,66.361V30.883c0-0.767-0.622-1.39-1.391-1.39c-0.768,0-1.39,0.623-1.39,1.39  v35.479c0,0.77,0.622,1.392,1.39,1.392C48.81,67.753,49.432,67.131,49.432,66.361z M49.432,17.23v-5.272  c0-0.768-0.622-1.391-1.391-1.391c-0.768,0-1.39,0.623-1.39,1.391v5.272c0,0.768,0.622,1.39,1.39,1.39  C48.81,18.62,49.432,17.998,49.432,17.23z M51.964,28.583v-8.92c0-2.164-1.759-3.924-3.923-3.924s-3.924,1.761-3.924,3.924v8.92  c0,2.164,1.76,3.924,3.924,3.924S51.964,30.747,51.964,28.583z M49.185,19.662v8.92c0,0.63-0.514,1.144-1.144,1.144  c-0.631,0-1.145-0.514-1.145-1.144v-8.92c0-0.63,0.514-1.144,1.145-1.144C48.671,18.519,49.185,19.032,49.185,19.662z   M64.075,55.095V27.372c0-0.768-0.622-1.39-1.39-1.39c-0.77,0-1.392,0.623-1.392,1.39v27.723c0,0.77,0.622,1.39,1.392,1.39  C63.453,56.484,64.075,55.864,64.075,55.095z M64.075,12.261V6.988c0-0.767-0.622-1.39-1.39-1.39c-0.77,0-1.392,0.623-1.392,1.39  v5.273c0,0.768,0.622,1.39,1.392,1.39C63.453,13.651,64.075,13.029,64.075,12.261z M66.608,23.614v-8.92  c0-2.164-1.76-3.924-3.923-3.924c-2.165,0-3.926,1.76-3.926,3.924v8.92c0,2.164,1.761,3.924,3.926,3.924  C64.849,27.538,66.608,25.777,66.608,23.614z M63.828,14.693v8.92c0,0.63-0.514,1.144-1.143,1.144c-0.632,0-1.146-0.513-1.146-1.144  v-8.92c0-0.63,0.514-1.144,1.146-1.144C63.314,13.549,63.828,14.063,63.828,14.693z M63.632,41.739  c0.562-0.523,0.594-1.403,0.069-1.965l-6.459-6.934c-0.521-0.562-1.405-0.592-1.964-0.07c-0.562,0.523-0.594,1.403-0.069,1.965  l6.459,6.934c0.272,0.294,0.645,0.442,1.018,0.442C63.023,42.112,63.365,41.988,63.632,41.739z M85.99,75.472H3.564  c-0.765,0-1.39,0.625-1.39,1.39s0.625,1.392,1.39,1.392H85.99c0.764,0,1.39-0.627,1.39-1.392S86.754,75.472,85.99,75.472z   M87.378,83.132c0-0.77-0.622-1.391-1.392-1.391H42.41c-0.767,0-1.39,0.621-1.39,1.391c0,0.768,0.623,1.39,1.39,1.39h43.577  C86.756,84.521,87.378,83.899,87.378,83.132z M28.855,83.132c0-0.77-0.623-1.391-1.39-1.391H3.571c-0.768,0-1.39,0.621-1.39,1.391  c0,0.768,0.622,1.39,1.39,1.39h23.895C28.232,84.521,28.855,83.899,28.855,83.132z"/><text x="0" y="105" fill="#000000" font-size="5px" font-weight="bold" font-family="'Helvetica Neue', Helvetica, Arial-Unicode, Arial, Sans-serif">Created by Katie Wright</text><text x="0" y="110" fill="#000000" font-size="5px" font-weight="bold" font-family="'Helvetica Neue', Helvetica, Arial-Unicode, Arial, Sans-serif">from the Noun Project</text></svg>