<svg xmlns="http://www.w3.org/2000/svg" data-name="Layer 4" viewBox="0 0 500 625" x="0px" y="0px"><path d="M111.7,69.582c-1.773,5,.845,12.406,5.025,15.483,1.821,1.341,3.759-1.183,2.878-2.879a24.4,24.4,0,0,1-4.352-12.605C114.876,67.654,112.249,68.02,111.7,69.582Z"/><path d="M121.876,74.587c.954,3.676,2.762,7.813,5.992,10.035,1.7,1.17,3.656-1.083,2.722-2.722-1.629-2.859-3.728-5.206-4.833-8.383C124.914,71.094,121.217,72.051,121.876,74.587Z"/><path d="M136.661,83.023a1.99,1.99,0,1,0,3.651-1.528C139.235,78.334,135,80.075,136.661,83.023Z"/><path d="M360.9,61.257c7.11-2.886,10.53-9.728,10.859-17.129.1-2.324-3.291-2.211-3.545,0-.636,5.551-4.64,9.989-8.988,13.158C357.42,58.6,358.426,62.261,360.9,61.257Z"/><path d="M355.5,47.254c-2.233,4.287-5.673,7.018-9.117,10.233-1.316,1.228.046,3.845,1.836,3.153,5.207-2.011,8.566-7.029,10.395-12.073C359.269,46.753,356.385,45.55,355.5,47.254Z"/><path d="M208.3,78.227c-1.53-3.127-2.246-6.41-3.248-9.713a1.942,1.942,0,0,0-3.8.514,27.249,27.249,0,0,0,9.11,19.687c1.546,1.308,4.285-.387,3-2.314A71.214,71.214,0,0,1,208.3,78.227Z"/><path d="M216.387,74.172c-2.708-3.989-2.972-7.763-3.036-12.425a1.942,1.942,0,0,0-3.8-.514c-1.381,5.041.583,10.767,3.613,14.82C214.571,77.93,217.758,76.192,216.387,74.172Z"/><path d="M117.331,45.21c-1.2,1.475-2.395,4.381-4.129,5.224-1.826.887-5.6.185-7.547.141C90.993,49.284,81.133,55.55,81.076,70.91a30.586,30.586,0,0,0-28.165,6.02c-3.492,2.927-6.605,7.1-11.152,8.414-4.331,1.249-9.225.092-13.683.77C18.323,87.226,5.2,94.865,11.228,106.236c5.074,8.279,17.2,5.876,23.945,12.33-.659,34.982,20.82,35.351,48.079,40.562,16.186,9.237,42.9,7.519,51.66,26.289-21.808-13.864-54.636,1.713-69.356-23.5-1.556-2.892-6.382-.926-5.35,2.255,7.314,20.325,32.444,20.218,50.448,21.2,6.41,10.122-3.578,22.459.856,33.259-16.529-2.854-24.026-10.866-26.631-27.205-.719-3.246-5.783-2.5-5.751.779-.271,22.427,17.325,31.729,37.168,34.625,12.433,15.269,29.512,7.226,45.833,12.563,18.644,14.961,42.4,22.656,51.106,47.1,5.931,42.168,6.139,85.679,5.208,127.322-.321,14.332-.655,28.673-1.268,43-.454,10.623-1.294,23.827-10.759,30.6-2.494,1.786-1.79,6.027,1.634,6.035,20.5.049,41.006.345,61.5.1,2.2-.027,4.315-2.8,2.772-4.829-20.506-30.252-16.824-97.841-14.8-134.272,1.15-31.7,9.724-62.864,30.387-87.661,7.036-3.022,14.751-3.7,22.191-5.178,15.665-2.405,31.683-13.039,35.7-29.046.5-2.347-2.65-4.836-4.453-2.592-15.041,22.628-19.912,22.828-45.817,27.6a265.41,265.41,0,0,1,22.932-22.9c38.982-41.911,88.018-13,127.312-56.143,6.16-4.906,14.581-6.2,21.026-10.753,11.364-8.02,13.869-22.5,11.054-35.433-.708-3.253-5.778-2.49-5.75.778.894,15.006-2.39,29.108-18.142,34.112,6.858-11.871,10.022-25.55,10.4-39.2,5.085-1.978,8.875-5.988,14.618-6.363,8.053.43,14.1-8.384,9.989-15.573-4.937-8.635-11.938-18.448-22.739-19.1-1.409-9.8-6.658-22.384-17.67-22.64-2.019-.047-3.105.526-3.893-1.465-.617-8.55-7.112-13.974-15.57-14.088-4.334-.448-6.467-2.467-9.6-5.229-9.188-8.662-16-5.424-26.908-4.006-11.961-.767-6.285-23.514-42.826-13.549a21.8,21.8,0,0,0-25.257-6.3,24.319,24.319,0,0,0-7.242-4.486c-4.352-1.639-6.949,5.089-2.578,6.79a16.827,16.827,0,0,1,6.588,4.671,3.711,3.711,0,0,0,4.425.571,14.322,14.322,0,0,1,19.469,4.853,3.716,3.716,0,0,0,4.125,1.679c36.858-12.79,22.3,16.968,48.291,12.468,3.232-.57,6.725-1.837,10.034-1.362,5.748,1.071,8.713,6.942,13.777,9.4,3.422,1.792,6.711,1.158,10.32,2.058,7.294,1.725,4.034,8.9,7.587,13.161,3.41,3.612,8.166,1.439,12.027,3.317.878,21.5-17.342,18.95-27.232,16.008a2.893,2.893,0,0,0-3.232,4.378c2.448,3.574,6.861,7.694,14.72,9.877a2,2,0,0,1,.241,3.775c-9.137,3.728-29.081,16.456-51.045-1.3-9.65-7.8-16.076-4.789-22.2-4.351a1.492,1.492,0,0,1-1.046-2.638,15.6,15.6,0,0,0,5.331-9.812c.326-2.1-2.411-4.178-3.8-2.57-13.308,15.408-32.289,9.834-39.475,6.921a2.526,2.526,0,0,0-3.488,2.535,12.559,12.559,0,0,0,2.519,6.1,2.273,2.273,0,0,1-.854,3.4c-8.231,3.93-17.05,2.413-21.946,1-6.842.063,3.157,10.4,7.466,10.069a1.422,1.422,0,0,1,.635,2.576c-15.065,10.565-31.867,1.1-39.728-11.879-1.073-1.772-3.99-.991-4.955.639-4.642,7.832-14.724,15.8-31.489,9.287a8.907,8.907,0,0,0-7.846.653c-8.333,5.494-14.665-3.335-24.322.757-5.748,1.946-12.948,3.981-19.654,2.578a2.029,2.029,0,0,1-.517-3.759c2.905-1.6,10.538-7.4,5.748-8.136-7.688,1.283-28.364,3.156-33.175-12.621-3.82-8.3-20.868,14.9-47.249-8.3-1.548-1.3-4.453-.623-4.352,1.8a22.547,22.547,0,0,0,7.449,16.028,1.913,1.913,0,0,1-.595,3.207,19.189,19.189,0,0,1-19.9-3.483,2.383,2.383,0,0,0-2.305-.609c-14.776,5.668-37.638,6.045-43.361-12.222C56.723,89.209,60.4,70.373,82.954,79.3c2.332,1.1,5.669-.166,5.506-3.159-1.095-9.906.982-18.705,12.77-18.309,7.486-.186,14.974,1.775,19.783-5.217,8.356-12.146,25.507-15.5,37.537-6.486,2.076,1.556,4.588-.245,5.353-2.178,4.425-11.185,16.413-17.129,28.019-15.859,5.853.641,11.626,1.739,16.91-1.625,9.891-7.957,15.1-13.866,29.181-12.654,6.533.632,11.535,4.933,17.807,5.967,5.421.893,9.887-2.9,15.261-2.628a15.88,15.88,0,0,1,13.521,8.8c.985,1.965,4.056,2.282,5.731.738,2.419-2.229-1.977-8.343-1.977-8.343-6.843-8.709-17.9-9.791-27.746-6.291-4.473,1.137-7.459-1.166-11.423-2.833-15.053-6.432-31.494-1.573-42.614,9.836-6,5.054-14.84.929-21.975,1.725A33.871,33.871,0,0,0,158.941,37.72C145.692,30.345,127.038,33.326,117.331,45.21Zm14.363,183.847a21.339,21.339,0,0,1-8.928-5.572c-11.153-10.287-.07-24.32-4.331-37.075,28.39,5.767,14.534,23.378,34.036,44.058C145.661,229.914,138.161,230.863,131.694,229.057Zm89.5,246.532c3.537-13.96,2.717-28.758,3.216-43.051,2.358-64.54,1.168-129.6-12.358-192.964,24.8,76.317,25.69,158.3,15.464,237.3A34.753,34.753,0,0,1,221.192,475.589ZM431.956,130.3c4.8-5.285,9.08-6.9,15.822-3.637-.875,12.051-4.3,23.258-10.611,32.513.807-9.1-.882-19.65-6.231-27.988Q431.454,130.757,431.956,130.3Zm-40.266,3.146c13.643-4.623,19.621,8.572,33.976,1.21,5.437,10.874,6.933,25.124.677,36.136-14.266,11.637-33.427,12.923-50.852,16.1a26.79,26.79,0,0,0,2.338-7.744c7.128-16.134,31.747-8.648,36.2-35.5.344-2.847-4.284-4.047-5.455-1.478-7.22,19.855-16.8,15.327-30.628,26.156-1.061-10.956-4.975-21.875-5.926-32.939C378.745,137.134,385.166,135.133,391.69,133.447Zm-28.736,19.775c-.157-2.466-4.036-4.2-5.221-1.414-2.723,8.346-5.549,13.8-13.973,17.531a175.353,175.353,0,0,0-2.592-33.531c6.068-2.871,11.557-6.929,17.951-9a25.166,25.166,0,0,0,6.5,5.848c-1.28,17.905,13.446,41.243.242,56.1a194.967,194.967,0,0,0-25.589,6.851,116.07,116.07,0,0,0,3.071-18.566C352.925,172.592,363.656,165.12,362.954,153.222Zm-26.3-3.688c1.72,16.922.967,34.042-4.2,50.4-.675,2.137,1.644,4.829,3.911,3.91,40.6-17.061,99.944-5.709,114.678-58.947a23.741,23.741,0,0,1,.5,8.616c-5.271,23.353-27.238,37.543-49.235,43.5-23.968,6.479-51.008,4.592-71.976,19.513-20.438,11.814-36.923,29.036-50.64,48.187-59.843,64.26-17.666,202.758-47.251,211.805,5.722-45.31,7.906-91.254,4.042-136.769.958-18.837,6.606-37,15.717-53.663,29.4-55.138,87.251-61.852,79.662-136.883A12.957,12.957,0,0,1,336.658,149.534Zm-38.417,74.911c-5.1,4.912-10.491,9.564-15.715,14.173-1.049-8.359-4.979-16.11-4.681-24.651a2.34,2.34,0,0,0-3.944-1.634c-4.7,4.547-1.5,13.48-.062,18.788,1.17,4.4,2.463,8.948,1.932,13.542a209.732,209.732,0,0,1-29.741,22.813c-8.18-36.329,9.357-50.823,26.846-78.632,5.859-3.493,12.193-6.131,17.882-9.924C284.344,202.761,299.942,208.378,298.241,224.445Zm-9.44-83.74c16.349,3.1,16.417-12.422,35.331-2.687,4.836,27.97,1.262,58.888-19.5,79.9a45.909,45.909,0,0,0-4.6-12.82c-5.812-10.353-5.91-23.591.534-33.7,7.338-7.153,15.474-16.7,16.278-27.309.09-2.008-2.865-3.436-4.217-1.747-2.739,3.422-4.259,7.456-6.464,11.217-6.343,11.065-16.524,18.954-27.809,24.645A122.076,122.076,0,0,0,288.8,140.705Zm-14.377-3.413a87.224,87.224,0,0,1-5.712,23.472,32.07,32.07,0,0,0-7.208-9.6c-2.277-1.983-5.892.506-4.292,3.312,2.774,4.834,6.5,9.3,7.689,14.9a151.09,151.09,0,0,1-12.376,20.46c-1.646-7.542-5.534-12.536-5.692-20.045.444-10.006,7.794-18.759,7.156-28.96C261.046,141.384,267.473,137.137,274.424,137.292Zm-89.787,3.618c16.419-10.279,16.593-5.939,33.628-4.18,3.863-.082,5.963-1.858,9.272-3.3,4.047-1.761,7.231,2.114,10.839,3.826a36.818,36.818,0,0,0,9.282,2.973c-.973,10.072-6.908,18.768-7.432,29.127-8.117-7-13.731-15.012-15.579-25.692-.643-3.126-5.242-2.243-5.369.727-1.5,23.5,28.629,30.7,27.08,54.109-7.039,9.914-13.8,20.015-17.9,31.417q-2.805-8.091-5.956-16.057c6.191-8.76,13.685-20.246,10.2-31.381a2.7,2.7,0,0,0-5.16,0c-2.208,8.12-2.773,16.655-8.212,23.611-9.627-22.833-21.558-44.634-36.415-64.408C183.492,141.448,184.07,141.2,184.637,140.91Zm1.667,16.547c23.823,35.889,39.01,77.243,49.027,118.953a3.216,3.216,0,0,0,4.67,1.9,165.729,165.729,0,0,0,18.954-11.855c-11.819,15.509-20.967,32.952-24.795,51.57a422.245,422.245,0,0,0-55.078-162.1A26.214,26.214,0,0,1,186.3,157.457Zm-83.013-26.281c22.368-4.934,30.133,8.5,48.748,5.944a241.839,241.839,0,0,1,37.084,60,95.128,95.128,0,0,0-15.472-8.775c-7.574-8.654-5.049-12.018-8.174-21.339a2.242,2.242,0,0,0-3.851,0c-2.358,5.122-.855,12.108,1.138,17.178q-4.534-1.425-9.226-2.442a2.93,2.93,0,0,0-1.556,5.646c14.94,5.395,31.245,11.566,42.559,23.068a311.85,311.85,0,0,1,9.618,30.281c-15.92-3.774-31.458-10.1-42.975-22.1-10.188-10.772-15.639-24.411-21-37.851-2.225-4.743-8.457-8.373-6.2-14.235,4.253-8.577,18.211-1.477,22.954-9.706.926-1.659-.2-4.413-2.389-4.163-2.12.242-3.72,1.15-5.766,1.682-3.686.87-7.508.713-11.18,1.79,2.389-3.661,4.474-7.567,3.014-11.823-.909-2.647-4.784-2.869-5.6,0-1.4,8.484-9.509,14.387-9.109,23.219a65.076,65.076,0,0,0-8.034-3.515C108.57,155.913,102.765,143.573,103.291,131.176Zm-22.983-4.424c5.062,2.763,10.267,5.279,16.211,4.921C96.3,142.338,99.268,150.8,105,160.078c-3.627-1.022-7.25-2.054-10.8-3.307-10.858-3.808-19.815-10.189-23.732-21.989-1.324-3.91-7.554-2.233-6.22,1.714a42.2,42.2,0,0,0,7.184,13.285c-17.124-1.8-28.811-7.068-29.648-26.379C55.54,134.375,67.168,121.309,80.308,126.752Z"/><path d="M297.909,18.378c.019,4.168,6.356,4.167,6.373,0C304.264,14.211,297.927,14.211,297.909,18.378Z"/><text x="0" y="515" fill="#000000" font-size="5px" font-weight="bold" font-family="'Helvetica Neue', Helvetica, Arial-Unicode, Arial, Sans-serif">Created by Maxicons</text><text x="0" y="520" fill="#000000" font-size="5px" font-weight="bold" font-family="'Helvetica Neue', Helvetica, Arial-Unicode, Arial, Sans-serif">from the Noun Project</text></svg>