<svg xmlns="http://www.w3.org/2000/svg" xmlns:xlink="http://www.w3.org/1999/xlink" xmlns:serif="http://www.serif.com/" viewBox="0 0 100 125" version="1.1" xml:space="preserve" style="" x="0px" y="0px" fill-rule="evenodd" clip-rule="evenodd" stroke-linejoin="round" stroke-miterlimit="2"><g transform="matrix(1,0,0,1,0,-225)"><g serif:id="Page 19" transform="matrix(1,0,0,1,0,225)"><rect x="0" y="0" width="100" height="100" style="" fill="none"/><g transform="matrix(1,0,0,1,0,-225)"><path d="M16.341,249.444C15.956,249.423 15.614,249.18 15.47,248.818C15.47,248.818 15.269,248.317 14.997,247.637C14.767,247.062 14.28,246.629 13.682,246.468C13.084,246.307 12.445,246.436 11.958,246.818C11.786,246.953 11.673,247.04 11.652,247.057C11.31,247.324 11.033,247.272 11.033,247.272C10.481,247.272 10.033,246.824 10.033,246.272C10.033,245.83 10.42,245.481 10.42,245.481C10.42,245.481 10.553,245.377 10.726,245.242C11.709,244.473 12.997,244.212 14.202,244.537C15.071,244.771 15.824,245.29 16.351,245.996L16.363,245.979C16.888,245.282 17.636,244.769 18.499,244.537C19.704,244.212 20.992,244.473 21.975,245.242C22.148,245.377 22.281,245.481 22.281,245.481C22.281,245.481 22.668,245.83 22.668,246.272C22.668,246.824 22.22,247.272 21.668,247.272C21.668,247.272 21.391,247.324 21.049,247.057C21.028,247.04 20.915,246.953 20.743,246.818C20.256,246.436 19.617,246.307 19.019,246.468C18.421,246.629 17.934,247.062 17.704,247.637C17.432,248.317 17.231,248.818 17.231,248.818C17.085,249.182 16.74,249.427 16.351,249.445L16.341,249.444Z"/></g><g transform="matrix(1,0,0,1,5.41264,-232.224)"><path d="M16.341,249.444C15.956,249.423 15.614,249.18 15.47,248.818C15.47,248.818 15.269,248.317 14.997,247.637C14.767,247.062 14.28,246.629 13.682,246.468C13.084,246.307 12.445,246.436 11.958,246.818C11.786,246.953 11.673,247.04 11.652,247.057C11.31,247.324 11.033,247.272 11.033,247.272C10.481,247.272 10.033,246.824 10.033,246.272C10.033,245.83 10.42,245.481 10.42,245.481C10.42,245.481 10.553,245.377 10.726,245.242C11.709,244.473 12.997,244.212 14.202,244.537C15.071,244.771 15.824,245.29 16.351,245.996L16.363,245.979C16.888,245.282 17.636,244.769 18.499,244.537C19.704,244.212 20.992,244.473 21.975,245.242C22.148,245.377 22.281,245.481 22.281,245.481C22.281,245.481 22.668,245.83 22.668,246.272C22.668,246.824 22.22,247.272 21.668,247.272C21.668,247.272 21.391,247.324 21.049,247.057C21.028,247.04 20.915,246.953 20.743,246.818C20.256,246.436 19.617,246.307 19.019,246.468C18.421,246.629 17.934,247.062 17.704,247.637C17.432,248.317 17.231,248.818 17.231,248.818C17.085,249.182 16.74,249.427 16.351,249.445L16.341,249.444Z"/></g><g transform="matrix(1,0,0,1,0,-225)"><path d="M41.691,302.612L42.455,248.609C41.463,248.872 40.004,249.3 38.601,249.869C37.119,250.47 35.67,251.191 35.072,252.105C34.814,252.5 34.315,252.66 33.875,252.49C33.435,252.32 33.173,251.866 33.248,251.4C33.82,247.801 36.248,243.736 40.721,242.219C40.728,242.216 40.736,242.214 40.744,242.212C40.756,242.208 40.765,242.196 40.766,242.183C40.767,242.172 40.762,242.162 40.75,242.154C38.526,241.179 36.067,241.066 34.687,241.638C34.29,241.802 33.833,241.695 33.551,241.371C33.268,241.048 33.224,240.58 33.441,240.209C34.771,237.935 36.367,236.889 37.935,236.514C40.25,235.96 42.576,236.92 44.11,237.865C44.423,238.058 44.703,238.249 44.941,238.423C45.7,237.415 47.138,235.986 49.329,235.842C51.14,235.722 53.555,236.475 56.556,239.389C56.903,239.725 56.959,240.262 56.69,240.663C56.421,241.064 55.904,241.216 55.46,241.023C53.361,240.11 51.217,240.437 49.666,241.35C49.666,241.351 49.667,241.351 49.667,241.351C49.667,241.354 49.67,241.356 49.673,241.356C49.677,241.357 49.681,241.358 49.685,241.358C52.45,241.772 55.219,242.776 56.976,244.888C58.177,246.331 58.932,248.291 58.871,250.968C58.862,251.363 58.621,251.716 58.256,251.868C57.892,252.02 57.472,251.943 57.185,251.672C54.701,249.327 50.176,248.262 48.065,247.875L48.066,247.875L48.642,300.246C48.868,300.226 49.097,300.216 49.328,300.216C51.116,300.216 52.764,300.821 54.078,301.839C55.34,300.259 57.205,299.182 59.324,298.958C59.209,298.428 59.148,297.877 59.148,297.312C59.148,293.026 62.628,289.547 66.914,289.547C69.479,289.547 71.756,290.794 73.17,292.714L73.17,285.647L67.525,285.647C64.307,285.647 61.698,283.038 61.698,279.82L61.698,279.099C61.122,278.958 60.588,278.71 60.117,278.378C59.614,278.734 59.037,278.992 58.415,279.127L58.415,281.828C58.415,282.38 57.967,282.828 57.415,282.828C56.863,282.828 56.415,282.38 56.415,281.828L56.415,279.123C54.313,278.661 52.736,276.784 52.736,274.539C52.736,271.949 54.837,269.847 57.423,269.847C57.694,269.847 57.96,269.87 58.218,269.915C58.651,267.77 60.545,266.154 62.812,266.154C65.056,266.154 66.935,267.738 67.392,269.849C67.441,269.848 67.49,269.847 67.54,269.847C70.126,269.847 72.226,271.949 72.226,274.539C72.226,277.13 70.126,279.232 67.54,279.232C66.678,279.232 65.87,278.999 65.176,278.591C64.726,278.855 64.228,279.047 63.698,279.148L63.698,279.82C63.698,281.934 65.411,283.647 67.525,283.647L73.17,283.647L73.17,259.014C73.142,259.014 73.115,259.014 73.088,259.014C71.99,259.014 70.953,258.751 70.037,258.284C69.404,258.606 68.713,258.832 67.985,258.94L67.985,263.281C67.985,263.833 67.537,264.281 66.985,264.281C66.433,264.281 65.985,263.833 65.985,263.281L65.985,258.94C62.733,258.456 60.235,255.645 60.235,252.254C60.235,249.852 61.488,247.741 63.375,246.542C63.371,246.449 63.369,246.356 63.369,246.263C63.369,242.608 66.337,239.641 69.992,239.641C70.9,239.641 71.767,239.824 72.555,240.156L72.555,240.156C73.288,239.883 74.08,239.733 74.907,239.733C75.915,239.733 76.872,239.955 77.732,240.353C78.926,238.445 81.044,237.176 83.456,237.176C87.181,237.176 90.206,240.204 90.206,243.936C90.206,244.554 90.123,245.153 89.967,245.721C92.849,246.492 94.975,249.126 94.975,252.254C94.975,253.919 94.373,255.444 93.375,256.622L93.375,259.756C93.375,260.308 92.927,260.756 92.375,260.756C91.823,260.756 91.375,260.308 91.375,259.756L91.375,258.233C90.434,258.732 89.362,259.014 88.225,259.014C86.823,259.014 85.521,258.585 84.441,257.851C83.361,258.585 82.059,259.014 80.657,259.014C80.238,259.014 79.827,258.976 79.43,258.902L79.43,274L82.466,274C83.48,274 84.454,273.597 85.171,272.879C85.638,272.412 85.972,271.837 86.148,271.213C85.924,271.144 85.708,271.055 85.504,270.947C84.994,271.217 84.413,271.369 83.797,271.369C81.777,271.369 80.136,269.727 80.136,267.704C80.136,265.717 81.717,264.098 83.687,264.04C84.121,262.501 85.535,261.373 87.21,261.373C88.89,261.373 90.308,262.509 90.738,264.056C90.857,264.044 90.978,264.038 91.1,264.038C93.12,264.038 94.761,265.68 94.761,267.704C94.761,268.867 94.219,269.904 93.375,270.575L93.375,275C93.375,275.552 92.927,276 92.375,276C91.823,276 91.375,275.552 91.375,275L91.375,271.359C91.284,271.366 91.193,271.369 91.1,271.369C90.386,271.369 89.719,271.164 89.156,270.809C88.861,270.995 88.538,271.139 88.195,271.235C87.981,272.386 87.425,273.454 86.586,274.293C85.493,275.386 84.011,276 82.466,276L79.43,276L79.43,289.613C79.761,289.569 80.1,289.547 80.444,289.547C84.711,289.547 88.179,292.996 88.209,297.256C90.625,298.573 92.265,301.135 92.265,304.078C92.265,304.777 92.172,305.454 91.998,306.098C93.81,307.52 94.975,309.73 94.975,312.21C94.975,316.496 91.496,319.975 87.21,319.975L12.79,319.975C8.504,319.975 5.025,316.496 5.025,312.21L5.025,307.981C5.025,303.695 8.504,300.216 12.79,300.216C14.79,300.216 16.615,300.973 17.991,302.217C18.083,302.198 18.175,302.181 18.267,302.166L18.267,296.706L8.049,296.706C7.694,296.706 7.366,296.518 7.186,296.212C7.007,295.906 7.003,295.528 7.176,295.218C7.176,295.218 17.161,277.367 17.161,277.367L11.959,277.367C11.604,277.367 11.275,277.178 11.096,276.871C10.917,276.564 10.914,276.185 11.089,275.875L21.897,256.737C22.075,256.421 22.411,256.226 22.774,256.229C23.137,256.231 23.47,256.43 23.644,256.748L34.133,275.886C34.303,276.196 34.296,276.572 34.116,276.876C33.936,277.18 33.609,277.367 33.256,277.367C33.256,277.367 28.054,277.367 28.054,277.367L38.039,295.218C38.213,295.528 38.209,295.906 38.029,296.212C37.85,296.518 37.521,296.706 37.167,296.706C37.167,296.706 26.948,296.706 26.948,296.706L26.948,302.157C27.351,302.093 27.764,302.059 28.184,302.059C30.239,302.059 32.108,302.858 33.497,304.164C34.886,302.858 36.756,302.059 38.81,302.059C39.828,302.059 40.8,302.255 41.691,302.612ZM90.011,305.773C90.176,305.237 90.265,304.668 90.265,304.078C90.265,301.709 88.833,299.673 86.789,298.786C86.396,298.615 86.156,298.214 86.191,297.787C86.203,297.63 86.21,297.472 86.21,297.312C86.21,294.13 83.626,291.547 80.444,291.547C77.262,291.547 74.679,294.13 74.679,297.312C74.679,297.478 74.686,297.642 74.7,297.804C74.723,298.083 74.629,298.359 74.44,298.565C74.25,298.772 73.983,298.889 73.703,298.889L73.655,298.888C73.52,298.881 73.392,298.848 73.275,298.793L73.273,298.792L73.275,298.792L73.259,298.786C73.132,298.731 73.017,298.65 72.921,298.546C72.732,298.341 72.637,298.065 72.66,297.787C72.673,297.63 72.679,297.472 72.679,297.312C72.679,294.13 70.096,291.547 66.914,291.547C63.732,291.547 61.148,294.13 61.148,297.312C61.148,297.927 61.245,298.52 61.423,299.076C62.426,299.404 63.322,300.244 63.757,301.217C63.983,301.72 63.757,302.313 63.253,302.538C62.749,302.764 62.157,302.538 61.932,302.034C61.688,301.489 61.172,300.985 60.593,300.932C60.447,300.92 60.298,300.915 60.148,300.915C57.997,300.915 56.12,302.096 55.128,303.844C54.972,304.12 54.693,304.306 54.377,304.343C54.062,304.381 53.747,304.267 53.53,304.035C52.478,302.916 50.984,302.216 49.328,302.216C47.122,302.216 45.203,303.458 44.234,305.28C44.089,305.553 43.827,305.743 43.523,305.796C43.219,305.849 42.908,305.759 42.679,305.552C41.656,304.624 40.299,304.059 38.81,304.059C37.215,304.059 35.771,304.708 34.727,305.756C35.039,306.427 35.171,307.174 35.039,307.861C34.935,308.403 34.41,308.758 33.868,308.655C33.326,308.551 32.971,308.026 33.075,307.484C33.159,307.046 32.977,306.57 32.681,306.199L32.466,305.965C32.438,305.939 32.41,305.914 32.382,305.89C32.309,305.83 32.248,305.761 32.197,305.687C31.159,304.68 29.744,304.059 28.184,304.059C26.788,304.059 25.506,304.557 24.508,305.384C24.138,305.691 23.602,305.691 23.232,305.384C22.234,304.557 20.952,304.059 19.556,304.059C19.005,304.059 18.472,304.136 17.967,304.281C17.876,304.307 17.783,304.32 17.691,304.32C16.899,304.572 16.152,305.161 15.926,305.922C15.769,306.451 15.211,306.753 14.682,306.595C14.153,306.438 13.852,305.881 14.009,305.352C14.282,304.436 14.95,303.626 15.787,303.056C14.914,302.523 13.887,302.216 12.79,302.216C9.608,302.216 7.025,304.799 7.025,307.981L7.025,312.21C7.025,315.392 9.608,317.975 12.79,317.975L87.21,317.975C90.392,317.975 92.975,315.392 92.975,312.21C92.975,310.36 92.102,308.713 90.746,307.658C89.838,308.136 88.729,308.29 87.814,307.958C87.295,307.771 87.026,307.197 87.214,306.678C87.401,306.159 87.975,305.89 88.494,306.078C88.978,306.253 89.568,306.086 90.011,305.773ZM63.994,313.791C64.629,313.791 65.144,314.306 65.144,314.941C65.144,315.575 64.629,316.091 63.994,316.091C63.36,316.091 62.844,315.575 62.844,314.941C62.844,314.306 63.36,313.791 63.994,313.791ZM32.408,312.641C33.043,312.641 33.558,313.156 33.558,313.791C33.558,314.425 33.043,314.941 32.408,314.941C31.774,314.941 31.258,314.425 31.258,313.791C31.258,313.156 31.774,312.641 32.408,312.641ZM16.006,311.491C16.641,311.491 17.156,312.006 17.156,312.641C17.156,313.275 16.641,313.791 16.006,313.791C15.371,313.791 14.856,313.275 14.856,312.641C14.856,312.006 15.371,311.491 16.006,311.491ZM85.343,311.491C85.978,311.491 86.493,312.006 86.493,312.641C86.493,313.275 85.978,313.791 85.343,313.791C84.708,313.791 84.193,313.275 84.193,312.641C84.193,312.006 84.708,311.491 85.343,311.491ZM51.15,307.672C51.785,307.672 52.3,308.188 52.3,308.822C52.3,309.457 51.785,309.972 51.15,309.972C50.515,309.972 50,309.457 50,308.822C50,308.188 50.515,307.672 51.15,307.672ZM70.075,302.824C70.709,302.824 71.225,303.34 71.225,303.974C71.225,304.609 70.709,305.124 70.075,305.124C69.44,305.124 68.925,304.609 68.925,303.974C68.925,303.34 69.44,302.824 70.075,302.824ZM24.948,302.765L24.948,295.706C24.948,295.154 25.396,294.706 25.948,294.706C25.948,294.706 35.461,294.706 35.461,294.706L25.476,276.855C25.303,276.545 25.307,276.167 25.486,275.861C25.666,275.555 25.994,275.367 26.349,275.367C26.349,275.367 31.568,275.367 31.568,275.367L22.754,259.285L13.673,275.367L18.866,275.367C19.221,275.367 19.55,275.555 19.729,275.861C19.909,276.167 19.912,276.545 19.739,276.855C19.739,276.855 9.754,294.706 9.754,294.706L19.267,294.706C19.82,294.706 20.267,295.154 20.267,295.706L20.267,302.091C21.592,302.212 22.821,302.666 23.87,303.369C24.211,303.14 24.571,302.938 24.948,302.765ZM46.647,300.692L46.053,246.712C46.049,246.422 46.172,246.146 46.388,245.954C46.604,245.761 46.893,245.672 47.18,245.709C47.18,245.709 52.76,246.456 56.693,248.828C56.464,247.753 56.029,246.877 55.439,246.167C53.99,244.426 51.67,243.678 49.391,243.337C48.586,243.222 47.929,242.633 47.728,241.845C47.527,241.053 47.825,240.218 48.483,239.733C48.507,239.716 48.531,239.699 48.557,239.684C49.581,239.061 50.81,238.632 52.136,238.513C51.115,237.975 50.23,237.787 49.46,237.837C47.469,237.969 46.437,239.719 46.138,240.225C45.933,240.573 45.73,240.72 45.697,240.74C45.392,240.929 45.121,240.91 44.921,240.859C44.741,240.813 44.575,240.725 44.438,240.575C44.411,240.551 44.366,240.512 44.322,240.474C43.884,240.104 42.702,239.191 41.228,238.685C40.324,238.374 39.302,238.212 38.285,238.489C37.753,238.633 37.23,238.898 36.727,239.312C38.231,239.307 39.957,239.618 41.579,240.334C41.587,240.337 41.595,240.341 41.603,240.344C42.359,240.702 42.819,241.487 42.761,242.322C42.703,243.152 42.146,243.862 41.344,244.12C38.856,244.97 37.149,246.787 36.161,248.79C36.286,248.724 36.414,248.659 36.544,248.595C39.443,247.176 43.263,246.353 43.263,246.353C43.561,246.289 43.872,246.364 44.107,246.558C44.343,246.751 44.477,247.041 44.473,247.345L43.691,302.643C44.505,301.783 45.514,301.109 46.647,300.692ZM77.43,290.155L77.43,258.192C77.238,258.087 77.052,257.973 76.873,257.851C76.352,258.205 75.78,258.488 75.17,258.686L75.17,291.616C75.828,291.006 76.591,290.509 77.43,290.155ZM58.68,272.16C59.008,272.335 59.407,272.313 59.714,272.104C60.021,271.894 60.187,271.531 60.144,271.162C60.132,271.059 60.126,270.953 60.126,270.847C60.126,269.361 61.329,268.154 62.812,268.154C64.295,268.154 65.498,269.361 65.498,270.847C65.498,270.884 65.497,270.921 65.496,270.957C65.483,271.279 65.626,271.588 65.881,271.786C66.135,271.985 66.47,272.048 66.779,271.956C67.02,271.885 67.276,271.847 67.54,271.847C69.023,271.847 70.226,273.054 70.226,274.539C70.226,276.025 69.023,277.232 67.54,277.232C66.885,277.232 66.285,276.997 65.819,276.606C65.447,276.294 64.905,276.294 64.533,276.606C64.067,276.997 63.467,277.232 62.812,277.232C62.037,277.232 61.339,276.903 60.849,276.376C60.66,276.173 60.395,276.058 60.117,276.058C59.84,276.058 59.575,276.173 59.386,276.376C58.895,276.903 58.197,277.232 57.423,277.232C55.94,277.232 54.736,276.025 54.736,274.539C54.736,273.054 55.94,271.847 57.423,271.847C57.877,271.847 58.305,271.96 58.68,272.16ZM88.86,265.234C88.817,265.603 88.982,265.966 89.29,266.175C89.597,266.385 89.995,266.406 90.323,266.231C90.555,266.108 90.82,266.038 91.1,266.038C92.018,266.038 92.761,266.785 92.761,267.704C92.761,268.623 92.018,269.369 91.1,269.369C90.622,269.369 90.19,269.165 89.887,268.84C89.698,268.637 89.433,268.522 89.155,268.522C88.878,268.522 88.613,268.637 88.424,268.84C88.12,269.165 87.689,269.369 87.21,269.369C86.805,269.369 86.434,269.224 86.146,268.982C85.774,268.67 85.232,268.67 84.861,268.982C84.573,269.224 84.202,269.369 83.797,269.369C82.88,269.369 82.136,268.623 82.136,267.704C82.136,266.785 82.88,266.038 83.797,266.038C83.96,266.038 84.118,266.062 84.267,266.106C84.577,266.197 84.911,266.134 85.166,265.936C85.42,265.738 85.563,265.429 85.55,265.106C85.549,265.084 85.549,265.061 85.549,265.038C85.549,264.119 86.293,263.373 87.21,263.373C88.127,263.373 88.871,264.119 88.871,265.038C88.871,265.104 88.867,265.169 88.86,265.234ZM72.079,242.138C72.35,242.276 72.67,242.283 72.946,242.157C73.544,241.885 74.208,241.733 74.907,241.733C75.897,241.733 76.816,242.037 77.578,242.558C77.826,242.728 78.138,242.777 78.427,242.691C78.716,242.605 78.951,242.393 79.066,242.115C79.78,240.39 81.477,239.176 83.456,239.176C86.078,239.176 88.206,241.309 88.206,243.936C88.206,244.699 88.027,245.42 87.707,246.059C87.558,246.359 87.568,246.714 87.735,247.004C87.902,247.294 88.203,247.482 88.537,247.504C91.014,247.665 92.975,249.732 92.975,252.254C92.975,254.881 90.847,257.014 88.225,257.014C87.029,257.014 85.936,256.57 85.1,255.837C84.723,255.507 84.159,255.507 83.782,255.837C82.946,256.57 81.853,257.014 80.657,257.014C79.461,257.014 78.367,256.57 77.532,255.837C77.154,255.507 76.59,255.507 76.213,255.837C75.378,256.57 74.284,257.014 73.088,257.014C72.163,257.014 71.299,256.749 70.569,256.289C70.243,256.084 69.829,256.084 69.504,256.289C68.774,256.749 67.91,257.014 66.985,257.014C64.363,257.014 62.235,254.881 62.235,252.254C62.235,250.386 63.311,248.767 64.876,247.988C65.263,247.795 65.483,247.374 65.419,246.946C65.386,246.723 65.369,246.495 65.369,246.263C65.369,243.712 67.44,241.641 69.992,241.641C70.743,241.641 71.452,241.82 72.079,242.138Z"/></g></g></g><text x="0" y="115" fill="#000000" font-size="5px" font-weight="bold" font-family="'Helvetica Neue', Helvetica, Arial-Unicode, Arial, Sans-serif">Created by Agan24</text><text x="0" y="120" fill="#000000" font-size="5px" font-weight="bold" font-family="'Helvetica Neue', Helvetica, Arial-Unicode, Arial, Sans-serif">from the Noun Project</text></svg>